M48
; DRILL file {KiCad 8.0.7-8.0.7-0~ubuntu24.04.1} date 2025-01-07T12:13:39-0500
; FORMAT={-:-/ absolute / metric / decimal}
; #@! TF.CreationDate,2025-01-07T12:13:39-05:00
; #@! TF.GenerationSoftware,Kicad,Pcbnew,8.0.7-8.0.7-0~ubuntu24.04.1
; #@! TF.FileFunction,Plated,1,4,PTH
FMAT,2
METRIC
; #@! TA.AperFunction,Plated,PTH,ViaDrill
T1C0.300
; #@! TA.AperFunction,Plated,PTH,ComponentDrill
T2C0.300
; #@! TA.AperFunction,Plated,PTH,ComponentDrill
T3C0.600
; #@! TA.AperFunction,Plated,PTH,ComponentDrill
T4C0.650
%
G90
G05
T1
X141.6Y-70.95
X141.942Y-87.692
X141.942Y-88.492
X141.942Y-94.892
X141.942Y-95.692
X141.942Y-96.492
X141.942Y-97.292
X141.942Y-98.092
X141.942Y-98.892
X141.942Y-99.692
X142.742Y-77.292
X142.742Y-78.092
X142.742Y-78.892
X142.742Y-79.692
X142.742Y-80.492
X142.742Y-81.292
X142.742Y-82.092
X142.742Y-82.892
X142.742Y-83.692
X142.742Y-84.492
X142.742Y-88.492
X142.742Y-94.892
X142.742Y-95.692
X142.742Y-96.492
X142.742Y-97.292
X142.742Y-98.092
X142.742Y-98.892
X142.742Y-99.692
X143.542Y-79.692
X143.542Y-80.492
X143.542Y-81.292
X143.542Y-82.092
X143.542Y-82.892
X143.542Y-83.692
X143.542Y-94.892
X143.542Y-95.692
X143.542Y-96.492
X143.542Y-97.292
X143.542Y-98.092
X143.542Y-98.892
X143.542Y-99.692
X143.925Y-74.275
X144.342Y-68.492
X144.342Y-69.292
X144.342Y-82.092
X144.342Y-98.892
X144.342Y-99.692
X144.369Y-95.85
X144.375Y-96.4
X144.475Y-96.9
X144.755Y-97.447
X145.142Y-68.492
X145.142Y-69.292
X145.142Y-82.092
X145.142Y-99.692
X145.15Y-97.925
X145.375Y-95.85
X145.4Y-96.375
X145.546Y-98.239
X145.575Y-96.875
X145.925Y-97.275
X145.942Y-99.692
X146.05Y-98.5
X146.54Y-97.6
X146.725Y-98.625
X147.325Y-97.625
X147.34Y-98.625
X147.93Y-98.67
X147.99Y-97.67
X148.4Y-66.9
X148.46Y-98.94
X148.63Y-89.62
X148.64Y-97.87
X148.8Y-99.35
X149.15Y-98.23
X149.3Y-78.0
X149.3Y-84.45
X149.57Y-98.72
X149.84Y-99.29
X149.942Y-66.892
X150.0Y-92.875
X150.742Y-66.892
X150.8Y-93.55
X151.338Y-94.142
X151.43Y-79.7
X151.542Y-66.892
X151.542Y-67.692
X151.542Y-68.492
X151.542Y-69.292
X151.8Y-78.0
X151.923Y-80.33
X152.0Y-90.45
X152.342Y-66.892
X152.342Y-67.692
X152.342Y-68.492
X152.342Y-69.292
X152.725Y-95.883
X152.825Y-89.675
X152.85Y-71.4
X152.86Y-90.507
X152.875Y-91.35
X152.993Y-72.187
X153.142Y-66.892
X153.142Y-67.692
X153.142Y-68.492
X153.142Y-69.292
X153.7Y-90.5
X153.942Y-66.892
X153.942Y-67.692
X153.942Y-68.492
X153.942Y-69.292
X153.975Y-86.55
X154.05Y-74.45
X154.25Y-72.2
X154.742Y-66.892
X154.742Y-67.692
X154.742Y-68.492
X154.742Y-69.292
X154.742Y-98.092
X155.114Y-87.807
X155.2Y-81.55
X155.325Y-71.425
X155.425Y-92.775
X155.425Y-95.75
X155.542Y-66.892
X155.859Y-88.348
X157.3Y-77.3
X158.375Y-82.925
X158.75Y-88.9
X159.025Y-94.775
X159.375Y-82.075
X159.525Y-89.95
X160.489Y-92.3
X160.65Y-83.35
X161.0Y-85.3
X161.142Y-97.292
X161.942Y-97.292
X162.0Y-90.4
X162.2Y-75.6
X162.375Y-99.0
X162.742Y-84.492
X164.342Y-68.492
X164.342Y-69.292
X164.85Y-91.7
X165.142Y-68.492
X165.142Y-69.292
X165.142Y-82.092
X165.942Y-68.492
X165.942Y-69.292
X166.175Y-84.175
X166.85Y-95.725
T2
X147.35Y-100.05
T4
X163.95Y-77.76
X163.95Y-79.03
X163.95Y-80.3
T3
X149.68Y-69.005G85X149.68Y-68.205
G05
X149.68Y-73.335G85X149.68Y-72.235
G05
X158.32Y-69.005G85X158.32Y-68.205
G05
X158.32Y-73.335G85X158.32Y-72.235
G05
M30
