M48
; DRILL file {KiCad 8.0.7-8.0.7-0~ubuntu24.04.1} date 2025-01-06T08:56:23-0500
; FORMAT={-:-/ absolute / metric / decimal}
; #@! TF.CreationDate,2025-01-06T08:56:23-05:00
; #@! TF.GenerationSoftware,Kicad,Pcbnew,8.0.7-8.0.7-0~ubuntu24.04.1
; #@! TF.FileFunction,Plated,1,4,PTH
FMAT,2
METRIC
; #@! TA.AperFunction,Plated,PTH,ViaDrill
T1C0.200
; #@! TA.AperFunction,Plated,PTH,ViaDrill
T2C0.300
; #@! TA.AperFunction,Plated,PTH,ComponentDrill
T3C0.300
; #@! TA.AperFunction,Plated,PTH,ComponentDrill
T4C0.600
; #@! TA.AperFunction,Plated,PTH,ComponentDrill
T5C0.650
%
G90
G05
T1
X144.369Y-95.638
X144.369Y-96.181
X144.414Y-96.626
X144.545Y-97.053
X144.755Y-97.447
X145.037Y-97.794
X145.369Y-96.157
X145.375Y-95.65
X145.425Y-98.15
X145.469Y-96.67
X145.761Y-97.104
X145.85Y-98.4
X146.323Y-97.525
X146.367Y-98.579
X146.975Y-98.625
X147.0Y-97.625
X147.588Y-98.625
X147.612Y-97.625
X148.102Y-98.725
X148.134Y-97.688
X148.532Y-97.822
X148.558Y-99.039
X148.85Y-99.473
X148.9Y-98.026
X149.325Y-98.4
X149.675Y-98.85
X149.9Y-99.375
X151.3Y-89.775
X151.325Y-91.225
X152.0Y-90.45
X152.125Y-88.95
X152.15Y-92.075
X152.825Y-89.675
X152.875Y-91.35
X153.6Y-88.95
X153.6Y-92.075
X153.7Y-90.5
X154.375Y-89.775
X154.425Y-91.25
T2
X141.6Y-70.95
X141.942Y-87.692
X141.942Y-88.492
X141.942Y-94.892
X141.942Y-95.692
X141.942Y-96.492
X141.942Y-97.292
X141.942Y-98.092
X141.942Y-98.892
X141.942Y-99.692
X142.742Y-77.292
X142.742Y-78.092
X142.742Y-78.892
X142.742Y-79.692
X142.742Y-80.492
X142.742Y-81.292
X142.742Y-82.092
X142.742Y-82.892
X142.742Y-83.692
X142.742Y-84.492
X142.742Y-88.492
X142.742Y-94.892
X142.742Y-95.692
X142.742Y-96.492
X142.742Y-97.292
X142.742Y-98.092
X142.742Y-98.892
X142.742Y-99.692
X143.542Y-79.692
X143.542Y-80.492
X143.542Y-81.292
X143.542Y-82.092
X143.542Y-82.892
X143.542Y-83.692
X143.542Y-94.892
X143.542Y-95.692
X143.542Y-96.492
X143.542Y-97.292
X143.542Y-98.092
X143.542Y-98.892
X143.542Y-99.692
X143.925Y-74.275
X144.342Y-68.492
X144.342Y-69.292
X144.342Y-82.092
X144.342Y-98.892
X144.342Y-99.692
X145.142Y-68.492
X145.142Y-69.292
X145.142Y-82.092
X145.142Y-99.692
X145.942Y-99.692
X148.23Y-89.52
X148.4Y-66.9
X149.3Y-78.0
X149.3Y-84.45
X149.942Y-66.892
X150.0Y-92.875
X150.742Y-66.892
X150.8Y-93.55
X151.338Y-94.142
X151.43Y-79.7
X151.542Y-66.892
X151.542Y-67.692
X151.542Y-68.492
X151.542Y-69.292
X151.8Y-78.0
X151.923Y-80.33
X152.342Y-66.892
X152.342Y-67.692
X152.342Y-68.492
X152.342Y-69.292
X152.725Y-95.883
X152.85Y-71.4
X152.993Y-72.187
X153.142Y-66.892
X153.142Y-67.692
X153.142Y-68.492
X153.142Y-69.292
X153.942Y-66.892
X153.942Y-67.692
X153.942Y-68.492
X153.942Y-69.292
X153.975Y-86.55
X154.05Y-74.45
X154.25Y-72.2
X154.742Y-66.892
X154.742Y-67.692
X154.742Y-68.492
X154.742Y-69.292
X154.742Y-98.092
X155.114Y-87.807
X155.2Y-81.55
X155.325Y-71.425
X155.425Y-92.775
X155.425Y-95.75
X155.542Y-66.892
X155.859Y-88.348
X157.3Y-77.3
X158.375Y-82.925
X158.75Y-88.9
X159.025Y-94.775
X159.375Y-82.075
X159.525Y-89.95
X160.489Y-92.3
X160.65Y-83.35
X161.0Y-85.3
X161.142Y-97.292
X161.942Y-97.292
X162.0Y-90.4
X162.2Y-75.6
X162.375Y-99.0
X162.742Y-84.492
X164.342Y-68.492
X164.342Y-69.292
X164.85Y-91.7
X165.142Y-68.492
X165.142Y-69.292
X165.142Y-82.092
X165.942Y-68.492
X165.942Y-69.292
X166.175Y-84.175
X166.85Y-95.725
T3
X147.35Y-100.05
T5
X163.95Y-77.76
X163.95Y-79.03
X163.95Y-80.3
T4
X149.68Y-69.005G85X149.68Y-68.205
G05
X149.68Y-73.335G85X149.68Y-72.235
G05
X158.32Y-69.005G85X158.32Y-68.205
G05
X158.32Y-73.335G85X158.32Y-72.235
G05
M30
