G04 #@! TF.GenerationSoftware,KiCad,Pcbnew,8.0.7-8.0.7-0~ubuntu24.04.1*
G04 #@! TF.CreationDate,2025-01-06T12:49:46-05:00*
G04 #@! TF.ProjectId,ESP32_C3_LVGL_DEVBOARD,45535033-325f-4433-935f-4c56474c5f44,rev?*
G04 #@! TF.SameCoordinates,Original*
G04 #@! TF.FileFunction,Legend,Bot*
G04 #@! TF.FilePolarity,Positive*
%FSLAX46Y46*%
G04 Gerber Fmt 4.6, Leading zero omitted, Abs format (unit mm)*
G04 Created by KiCad (PCBNEW 8.0.7-8.0.7-0~ubuntu24.04.1) date 2025-01-06 12:49:46*
%MOMM*%
%LPD*%
G01*
G04 APERTURE LIST*
G04 Aperture macros list*
%AMRoundRect*
0 Rectangle with rounded corners*
0 $1 Rounding radius*
0 $2 $3 $4 $5 $6 $7 $8 $9 X,Y pos of 4 corners*
0 Add a 4 corners polygon primitive as box body*
4,1,4,$2,$3,$4,$5,$6,$7,$8,$9,$2,$3,0*
0 Add four circle primitives for the rounded corners*
1,1,$1+$1,$2,$3*
1,1,$1+$1,$4,$5*
1,1,$1+$1,$6,$7*
1,1,$1+$1,$8,$9*
0 Add four rect primitives between the rounded corners*
20,1,$1+$1,$2,$3,$4,$5,0*
20,1,$1+$1,$4,$5,$6,$7,0*
20,1,$1+$1,$6,$7,$8,$9,0*
20,1,$1+$1,$8,$9,$2,$3,0*%
G04 Aperture macros list end*
%ADD10C,0.153000*%
%ADD11C,0.120000*%
%ADD12C,0.000000*%
%ADD13R,1.000000X1.000000*%
%ADD14O,1.000000X1.000000*%
%ADD15C,0.650000*%
%ADD16O,1.000000X2.100000*%
%ADD17O,1.000000X1.800000*%
%ADD18RoundRect,0.200000X-0.053033X0.335876X-0.335876X0.053033X0.053033X-0.335876X0.335876X-0.053033X0*%
%ADD19RoundRect,0.250000X-0.475000X0.250000X-0.475000X-0.250000X0.475000X-0.250000X0.475000X0.250000X0*%
%ADD20RoundRect,0.150000X0.512500X0.150000X-0.512500X0.150000X-0.512500X-0.150000X0.512500X-0.150000X0*%
%ADD21RoundRect,0.200000X-0.335876X-0.053033X-0.053033X-0.335876X0.335876X0.053033X0.053033X0.335876X0*%
%ADD22RoundRect,0.200000X-0.275000X0.200000X-0.275000X-0.200000X0.275000X-0.200000X0.275000X0.200000X0*%
%ADD23RoundRect,0.250000X0.425000X-0.450000X0.425000X0.450000X-0.425000X0.450000X-0.425000X-0.450000X0*%
%ADD24RoundRect,0.375000X-0.375000X0.625000X-0.375000X-0.625000X0.375000X-0.625000X0.375000X0.625000X0*%
%ADD25RoundRect,0.500000X-1.400000X0.500000X-1.400000X-0.500000X1.400000X-0.500000X1.400000X0.500000X0*%
%ADD26RoundRect,0.225000X0.250000X-0.225000X0.250000X0.225000X-0.250000X0.225000X-0.250000X-0.225000X0*%
%ADD27RoundRect,0.225000X-0.250000X0.225000X-0.250000X-0.225000X0.250000X-0.225000X0.250000X0.225000X0*%
G04 APERTURE END LIST*
D10*
X142834663Y-82160595D02*
X143644186Y-82160595D01*
X143644186Y-82160595D02*
X143739424Y-82208214D01*
X143739424Y-82208214D02*
X143787044Y-82255833D01*
X143787044Y-82255833D02*
X143834663Y-82351071D01*
X143834663Y-82351071D02*
X143834663Y-82541547D01*
X143834663Y-82541547D02*
X143787044Y-82636785D01*
X143787044Y-82636785D02*
X143739424Y-82684404D01*
X143739424Y-82684404D02*
X143644186Y-82732023D01*
X143644186Y-82732023D02*
X142834663Y-82732023D01*
X142834663Y-83112976D02*
X142834663Y-83732023D01*
X142834663Y-83732023D02*
X143215615Y-83398690D01*
X143215615Y-83398690D02*
X143215615Y-83541547D01*
X143215615Y-83541547D02*
X143263234Y-83636785D01*
X143263234Y-83636785D02*
X143310853Y-83684404D01*
X143310853Y-83684404D02*
X143406091Y-83732023D01*
X143406091Y-83732023D02*
X143644186Y-83732023D01*
X143644186Y-83732023D02*
X143739424Y-83684404D01*
X143739424Y-83684404D02*
X143787044Y-83636785D01*
X143787044Y-83636785D02*
X143834663Y-83541547D01*
X143834663Y-83541547D02*
X143834663Y-83255833D01*
X143834663Y-83255833D02*
X143787044Y-83160595D01*
X143787044Y-83160595D02*
X143739424Y-83112976D01*
D11*
X148662770Y-95098303D02*
X148998303Y-94762770D01*
X149401697Y-95837230D02*
X149737230Y-95501697D01*
X144865000Y-76811252D02*
X144865000Y-76288748D01*
X146335000Y-76811252D02*
X146335000Y-76288748D01*
X160400000Y-76740000D02*
X161200000Y-76740000D01*
X160400000Y-79860000D02*
X161200000Y-79860000D01*
X162000000Y-76740000D02*
X161200000Y-76740000D01*
X162000000Y-79860000D02*
X161200000Y-79860000D01*
X162500000Y-76790000D02*
X162260000Y-76460000D01*
X162740000Y-76460000D01*
X162500000Y-76790000D01*
G36*
X162500000Y-76790000D02*
G01*
X162260000Y-76460000D01*
X162740000Y-76460000D01*
X162500000Y-76790000D01*
G37*
X156956666Y-94245593D02*
X156621133Y-93910060D01*
X157695593Y-93506666D02*
X157360060Y-93171133D01*
X154717500Y-77487258D02*
X154717500Y-77012742D01*
X155762500Y-77487258D02*
X155762500Y-77012742D01*
X151665000Y-83410000D02*
X151665000Y-87320000D01*
X151665000Y-87320000D02*
X153535000Y-87320000D01*
X153535000Y-87320000D02*
X153535000Y-83410000D01*
X144470000Y-84832500D02*
X144470000Y-81072500D01*
X145730000Y-84832500D02*
X144470000Y-84832500D01*
X150030000Y-84832500D02*
X151290000Y-84832500D01*
X151290000Y-84832500D02*
X151290000Y-81072500D01*
X144570000Y-79792500D02*
X144240000Y-80032500D01*
X144240000Y-79552500D01*
X144570000Y-79792500D01*
G36*
X144570000Y-79792500D02*
G01*
X144240000Y-80032500D01*
X144240000Y-79552500D01*
X144570000Y-79792500D01*
G37*
X152607500Y-77487258D02*
X152607500Y-77012742D01*
X153652500Y-77487258D02*
X153652500Y-77012742D01*
X157715000Y-77209420D02*
X157715000Y-77490580D01*
X158735000Y-77209420D02*
X158735000Y-77490580D01*
D12*
G36*
X166260743Y-71964669D02*
G01*
X166172698Y-72025250D01*
X166079806Y-72082601D01*
X165987722Y-72131066D01*
X165987722Y-71904895D01*
X166339903Y-71904895D01*
X166260743Y-71964669D01*
G37*
G36*
X166293861Y-74251422D02*
G01*
X166368982Y-74275654D01*
X166423910Y-74320889D01*
X166444911Y-74391163D01*
X166431179Y-74451745D01*
X166394830Y-74492132D01*
X166341519Y-74514750D01*
X166276898Y-74522019D01*
X166160582Y-74486478D01*
X166130291Y-74438821D01*
X166120194Y-74366931D01*
X166126656Y-74302310D01*
X166144426Y-74247383D01*
X166175929Y-74244960D01*
X166212278Y-74244152D01*
X166293861Y-74251422D01*
G37*
G36*
X166749165Y-71597948D02*
G01*
X166749165Y-77942052D01*
X166749165Y-78278616D01*
X165450835Y-78278616D01*
X165450835Y-77942052D01*
X165450835Y-77885509D01*
X165588691Y-77885509D01*
X165753473Y-77885509D01*
X165753473Y-77675493D01*
X166312439Y-77675493D01*
X166255089Y-77778885D01*
X166215509Y-77877431D01*
X166380291Y-77942052D01*
X166417447Y-77858045D01*
X166467528Y-77767577D01*
X166525687Y-77681955D01*
X166588691Y-77612488D01*
X166588691Y-77476785D01*
X165753473Y-77476785D01*
X165753473Y-77278078D01*
X165588691Y-77278078D01*
X165588691Y-77885509D01*
X165450835Y-77885509D01*
X165450835Y-77278078D01*
X165450835Y-77118142D01*
X165588691Y-77118142D01*
X165629079Y-77122181D01*
X165663005Y-77121373D01*
X165740549Y-77113901D01*
X165811632Y-77091486D01*
X165876858Y-77057561D01*
X165936834Y-77015557D01*
X165992165Y-76967900D01*
X166043457Y-76917011D01*
X166091721Y-76866123D01*
X166137964Y-76818465D01*
X166225202Y-76742536D01*
X166310824Y-76712649D01*
X166405331Y-76749806D01*
X166438449Y-76843506D01*
X166415832Y-76942052D01*
X166339903Y-77043829D01*
X166478837Y-77142375D01*
X166537803Y-77072706D01*
X166578998Y-76992940D01*
X166603231Y-76908328D01*
X166611309Y-76824120D01*
X166593538Y-76706187D01*
X166540226Y-76606026D01*
X166450565Y-76536559D01*
X166325363Y-76510711D01*
X166226010Y-76530097D01*
X166133118Y-76581793D01*
X166045880Y-76654491D01*
X165965105Y-76736882D01*
X165919063Y-76785347D01*
X165864136Y-76837044D01*
X165806785Y-76878239D01*
X165753473Y-76895202D01*
X165753473Y-76465477D01*
X165588691Y-76465477D01*
X165588691Y-77118142D01*
X165450835Y-77118142D01*
X165450835Y-76465477D01*
X165450835Y-76221535D01*
X165905331Y-76221535D01*
X166100808Y-76221535D01*
X166100808Y-75778885D01*
X165905331Y-75778885D01*
X165905331Y-76221535D01*
X165450835Y-76221535D01*
X165450835Y-75778885D01*
X165450835Y-75502633D01*
X165588691Y-75502633D01*
X165629079Y-75506672D01*
X165663005Y-75505864D01*
X165740549Y-75498393D01*
X165811632Y-75475977D01*
X165876858Y-75442052D01*
X165936834Y-75400048D01*
X165992165Y-75352391D01*
X166043457Y-75301502D01*
X166091721Y-75250614D01*
X166137964Y-75202956D01*
X166225202Y-75127027D01*
X166310824Y-75097141D01*
X166405331Y-75134297D01*
X166438449Y-75227997D01*
X166415832Y-75326543D01*
X166339903Y-75428320D01*
X166478837Y-75526866D01*
X166537803Y-75457197D01*
X166578998Y-75377431D01*
X166603231Y-75292819D01*
X166611309Y-75208611D01*
X166593538Y-75090679D01*
X166540226Y-74990517D01*
X166450565Y-74921050D01*
X166325363Y-74895202D01*
X166226010Y-74914588D01*
X166133118Y-74966284D01*
X166045880Y-75038982D01*
X165965105Y-75121373D01*
X165919063Y-75169838D01*
X165864136Y-75221535D01*
X165806785Y-75262730D01*
X165753473Y-75279693D01*
X165753473Y-74849968D01*
X165588691Y-74849968D01*
X165588691Y-75502633D01*
X165450835Y-75502633D01*
X165450835Y-74849968D01*
X165450835Y-74648029D01*
X165585460Y-74648029D01*
X165756704Y-74654491D01*
X165771446Y-74532116D01*
X165812439Y-74423473D01*
X165882108Y-74336640D01*
X165982876Y-74279693D01*
X165955412Y-74392779D01*
X165961672Y-74473554D01*
X165980452Y-74541405D01*
X166049111Y-74641567D01*
X166150081Y-74698110D01*
X166273667Y-74715880D01*
X166392407Y-74695687D01*
X166502262Y-74635913D01*
X166583037Y-74536559D01*
X166606664Y-74471535D01*
X166614540Y-74396010D01*
X166601975Y-74292797D01*
X166564279Y-74207175D01*
X166501454Y-74139144D01*
X166416191Y-74089781D01*
X166311183Y-74060163D01*
X166186430Y-74050291D01*
X166049313Y-74060792D01*
X165928756Y-74092294D01*
X165825565Y-74143384D01*
X165740549Y-74212649D01*
X165673708Y-74299079D01*
X165625040Y-74401664D01*
X165595355Y-74518586D01*
X165585460Y-74648029D01*
X165450835Y-74648029D01*
X165450835Y-73798271D01*
X165905331Y-73798271D01*
X166100808Y-73798271D01*
X166100808Y-73355622D01*
X165905331Y-73355622D01*
X165905331Y-73798271D01*
X165450835Y-73798271D01*
X165450835Y-73355622D01*
X165450835Y-73079370D01*
X165588691Y-73079370D01*
X165629079Y-73083409D01*
X165663005Y-73082601D01*
X165740549Y-73075129D01*
X165811632Y-73052714D01*
X165876858Y-73018788D01*
X165936834Y-72976785D01*
X165992165Y-72929128D01*
X166043457Y-72878239D01*
X166091721Y-72827351D01*
X166137964Y-72779693D01*
X166225202Y-72703764D01*
X166310824Y-72673877D01*
X166405331Y-72711034D01*
X166438449Y-72804733D01*
X166415832Y-72903279D01*
X166339903Y-73005057D01*
X166478837Y-73103603D01*
X166537803Y-73033934D01*
X166578998Y-72954168D01*
X166603231Y-72869556D01*
X166611309Y-72785347D01*
X166593538Y-72667415D01*
X166540226Y-72567254D01*
X166450565Y-72497787D01*
X166325363Y-72471939D01*
X166226010Y-72491325D01*
X166133118Y-72543021D01*
X166045880Y-72615719D01*
X165965105Y-72698110D01*
X165919063Y-72746575D01*
X165864136Y-72798271D01*
X165806785Y-72839467D01*
X165753473Y-72856430D01*
X165753473Y-72426704D01*
X165588691Y-72426704D01*
X165588691Y-73079370D01*
X165450835Y-73079370D01*
X165450835Y-72426704D01*
X165450835Y-71904895D01*
X165588691Y-71904895D01*
X165824556Y-71904895D01*
X165824556Y-72321696D01*
X165969952Y-72321696D01*
X166037197Y-72286559D01*
X166112924Y-72242536D01*
X166193901Y-72191648D01*
X166276898Y-72135913D01*
X166360299Y-72076139D01*
X166442488Y-72013134D01*
X166519830Y-71948514D01*
X166588691Y-71883893D01*
X166588691Y-71706187D01*
X165987722Y-71706187D01*
X165987722Y-71597948D01*
X165824556Y-71597948D01*
X165824556Y-71706187D01*
X165588691Y-71706187D01*
X165588691Y-71904895D01*
X165450835Y-71904895D01*
X165450835Y-71706187D01*
X165450835Y-71597948D01*
X165450835Y-71261384D01*
X166749165Y-71261384D01*
X166749165Y-71597948D01*
G37*
D11*
X149990000Y-76910580D02*
X149990000Y-76629420D01*
X151010000Y-76910580D02*
X151010000Y-76629420D01*
%LPC*%
D13*
X163950000Y-80300000D03*
D14*
X163950000Y-79030000D03*
X163950000Y-77760000D03*
D15*
X156890000Y-72225000D03*
X151110000Y-72225000D03*
D16*
X158320000Y-72785000D03*
D17*
X158320000Y-68605000D03*
D16*
X149680000Y-72785000D03*
D17*
X149680000Y-68605000D03*
D18*
X149783363Y-94716637D03*
X148616637Y-95883363D03*
D19*
X145600000Y-75600000D03*
X145600000Y-77500000D03*
D20*
X162337500Y-77350000D03*
X162337500Y-78300000D03*
X162337500Y-79250000D03*
X160062500Y-79250000D03*
X160062500Y-78300000D03*
X160062500Y-77350000D03*
D21*
X156575000Y-93125000D03*
X157741726Y-94291726D03*
D22*
X155240000Y-76425000D03*
X155240000Y-78075000D03*
D23*
X152600000Y-86360000D03*
X152600000Y-83660000D03*
D24*
X145580000Y-79772500D03*
X147880000Y-79772500D03*
D25*
X147880000Y-86072500D03*
D24*
X150180000Y-79772500D03*
D22*
X153130000Y-76425000D03*
X153130000Y-78075000D03*
D26*
X158225000Y-78125000D03*
X158225000Y-76575000D03*
D27*
X150500000Y-75995000D03*
X150500000Y-77545000D03*
%LPD*%
M02*
